<svg xmlns="http://www.w3.org/2000/svg" viewBox="0 0 200 225.72" enable-background="new 0 0 200 225.72"><path fill="#fff" d="M56.434 0l-56.434 32.582v135.403l100 57.735 100-57.735v-135.403l-56.433-32.582z"/><path d="M165.583 156.419l-13.529-7.811-13.529 7.811v18.318l13.529 7.811 13.529-7.811zM100 165.578l-52.054-30.053v-14.923h11.326v8.384l40.728 23.515 40.728-23.515v-8.384h11.326v14.923zM152.054 76.903h-11.326v-5.322l-40.728-23.515-40.728 23.515v5.322h-11.326v-11.861l52.054-30.053 52.054 30.053z"/><g fill="#fff"><path d="M147.173 161.275c-.365.365-.812.547-1.34.547-.529 0-.975-.182-1.34-.547-.365-.365-.547-.815-.547-1.349 0-.535.182-.985.547-1.35.365-.365.811-.547 1.34-.547.528 0 .975.182 1.34.547s.547.815.547 1.35c.001.534-.182.984-.547 1.349zm-2.945 11.722v-10.533h3.228v10.533h-3.228zM151.127 171.637c-1.064-.994-1.594-2.302-1.594-3.925 0-1.624.528-2.923 1.585-3.899 1.057-.974 2.366-1.463 3.926-1.463s2.865.488 3.917 1.463c1.05.976 1.576 2.275 1.576 3.899 0 1.623-.523 2.932-1.567 3.925-1.045.994-2.347 1.491-3.908 1.491-1.56 0-2.871-.496-3.935-1.491zm5.484-1.944c.428-.453.641-1.107.641-1.963 0-.855-.22-1.507-.661-1.954-.441-.446-.962-.67-1.567-.67-.604 0-1.123.224-1.557.67-.434.447-.652 1.099-.652 1.954 0 .856.224 1.51.67 1.963.447.453.972.679 1.576.679.606.001 1.121-.225 1.55-.679z"/></g><path d="M42.127 109.287l-1.472-4.454h-9.513l-1.473 4.454h-6.87l9.211-26.577h7.853l9.173 26.577h-6.909zm-9.363-9.362h6.266l-3.133-9.438-3.133 9.438zM75.008 83.88v3.096h-2.114v22.311h-6.455v-3.058c-1.561 2.215-3.65 3.323-6.266 3.323-2.618 0-4.858-1.006-6.72-3.02-1.863-2.013-2.794-4.593-2.794-7.739s.931-5.732 2.794-7.758c1.862-2.026 4.134-3.039 6.814-3.039s4.737.994 6.172 2.982v-4.001h-2.869v-3.097h2.869v-2.529h6.455v2.529h2.114zm-16.384 18.744c.931.893 2.001 1.34 3.209 1.34 1.208 0 2.277-.453 3.208-1.359s1.397-2.19 1.397-3.851-.466-2.938-1.397-3.831-2-1.34-3.208-1.34c-1.208 0-2.278.453-3.209 1.359-.931.906-1.396 2.19-1.396 3.851-.001 1.66.465 2.938 1.396 3.831zM79.803 106.531c-1.863-2.013-2.794-4.593-2.794-7.739s.931-5.732 2.794-7.758c1.862-2.026 4.134-3.039 6.814-3.039 2.68 0 4.737.994 6.172 2.982v-2.756h6.455v21.066h-6.455v-3.058c-1.561 2.215-3.65 3.323-6.266 3.323-2.619-.001-4.859-1.007-6.72-3.021zm11.589-3.926c.931-.906 1.397-2.19 1.397-3.851s-.466-2.938-1.397-3.831-2-1.34-3.208-1.34-2.278.453-3.209 1.359-1.396 2.19-1.396 3.851.465 2.939 1.396 3.832c.931.893 2.001 1.34 3.209 1.34s2.277-.454 3.208-1.36zM111.362 81.351v9.966c1.334-2.215 3.46-3.322 6.38-3.322 2.417 0 4.373.806 5.871 2.416 1.497 1.611 2.246 3.801 2.246 6.569v12.307h-6.418v-11.439c0-1.359-.359-2.409-1.077-3.152-.717-.742-1.705-1.113-2.963-1.113-1.259 0-2.246.371-2.963 1.113-.718.743-1.077 1.794-1.077 3.152v11.439h-6.455v-27.936h6.456zM133.013 106.569c-2.127-1.988-3.19-4.606-3.19-7.853 0-3.246 1.056-5.845 3.171-7.795 2.114-1.95 4.732-2.925 7.853-2.925s5.732.975 7.833 2.925c2.101 1.95 3.152 4.549 3.152 7.795 0 3.247-1.044 5.865-3.133 7.853-2.089 1.988-4.695 2.983-7.815 2.983-3.12-.001-5.744-.995-7.871-2.983zm10.967-3.889c.855-.906 1.283-2.215 1.283-3.926 0-1.711-.441-3.014-1.321-3.907-.882-.893-1.925-1.34-3.134-1.34-1.208 0-2.246.447-3.114 1.34-.868.893-1.302 2.196-1.302 3.907 0 1.712.446 3.02 1.34 3.926.893.906 1.944 1.359 3.152 1.359 1.209.001 2.24-.453 3.096-1.359zM161.497 108.871l-8.192-20.65h7.324l4.681 13.78 5.135-13.78h6.758l-13.44 31.107h-6.758l4.492-10.457z"/></svg>